<svg width="316" height="487" viewBox="0 0 316 487" fill="none" xmlns="http://www.w3.org/2000/svg">
<path d="M0 8C0 3.58172 3.58172 0 8 0H308C312.418 0 316 3.58172 316 8V392.957H0V8Z" fill="url(#paint0_linear_9_10313)"/>
<path d="M252.708 42.7745H249.598L249.209 39.335C249.174 39.0356 248.921 38.8075 248.619 38.8075H245.155C244.915 38.8075 244.719 39.001 244.719 39.2406V42.7745L244.749 46.4719V52.8509C244.749 53.6618 244.839 54.3944 245.021 55.0532C245.203 55.7121 245.5 56.2788 245.915 56.7534C246.329 57.2302 246.88 57.5942 247.566 57.8476C248.253 58.101 249.101 58.2278 250.112 58.2278C250.637 58.2278 251.163 58.1817 251.688 58.0918C252.063 58.0273 252.393 57.9536 252.674 57.873C252.863 57.82 252.989 57.6449 252.985 57.4491L252.939 54.7077C252.934 54.4358 252.683 54.24 252.416 54.2907C252.363 54.3022 252.305 54.3114 252.248 54.3184C251.976 54.3598 251.718 54.3783 251.476 54.3783C250.769 54.3783 250.28 54.2009 250.006 53.8461C249.734 53.4913 249.596 52.9592 249.596 52.2496V46.4696H252.706C252.946 46.4696 253.141 46.2761 253.141 46.0342V43.2076C253.141 42.968 252.948 42.7722 252.706 42.7722L252.708 42.7745Z" fill="white"/>
<path d="M117.782 44.159C117.347 43.5831 116.778 43.1132 116.071 42.7492C115.384 42.3967 114.553 42.217 113.58 42.2055H113.583C113.567 42.2055 113.553 42.2055 113.537 42.2055C113.523 42.2055 113.509 42.2055 113.493 42.2055C113.44 42.2055 113.387 42.2101 113.334 42.2101C112.212 42.2378 111.254 42.4451 110.461 42.8413C109.738 43.203 109.153 43.5923 108.703 44.0116L108.411 43.051C108.335 42.7999 108.104 42.6294 107.842 42.6294H104.536C104.296 42.6294 104.101 42.8229 104.101 43.0625V57.2833C104.101 57.5229 104.294 57.7187 104.536 57.7187H108.667C108.906 57.7187 109.102 57.5252 109.102 57.2833V49.5382C109.102 49.1143 109.157 48.7043 109.268 48.3103C109.378 47.9164 109.544 47.5685 109.768 47.2644C109.989 46.9604 110.268 46.7231 110.602 46.5526C110.936 46.3821 111.325 46.2946 111.767 46.2946C112.21 46.2946 112.581 46.3798 112.873 46.5526C113.166 46.7254 113.394 46.9581 113.555 47.2506C113.716 47.5432 113.831 47.8818 113.903 48.2666C113.974 48.6513 114.009 49.0544 114.009 49.4783V57.2856C114.009 57.5252 114.202 57.721 114.444 57.721H118.575C118.814 57.721 119.01 57.5275 119.01 57.2856V48.3887C119.01 47.6423 118.913 46.8936 118.722 46.1472C118.531 45.4007 118.218 44.7373 117.782 44.1637V44.159Z" fill="white"/>
<path d="M164.57 36.7296H160.47C160.23 36.7296 160.034 36.9231 160.034 37.165V44.2374H159.975C159.551 43.7329 158.954 43.2675 158.187 42.8437C157.42 42.4198 156.48 42.2078 155.369 42.2078C154.259 42.2078 153.294 42.4198 152.414 42.8437C151.536 43.2675 150.787 43.8435 150.172 44.5714C149.555 45.2994 149.083 46.1426 148.749 47.1009C148.415 48.0616 148.249 49.066 148.249 50.1165C148.249 51.167 148.41 52.176 148.732 53.1458C149.055 54.1157 149.525 54.9681 150.142 55.7053C150.757 56.4424 151.511 57.0345 152.4 57.4768C153.289 57.9214 154.298 58.1426 155.429 58.1426C155.565 58.1426 155.701 58.138 155.835 58.1311C157.014 58.1057 158.023 57.8892 158.855 57.4745C159.571 57.1174 160.157 56.7327 160.613 56.3203L160.933 57.3086C161.014 57.5528 161.242 57.7187 161.5 57.7187H164.568C164.808 57.7187 165.004 57.5252 165.004 57.2833V37.165C165.004 36.9254 164.81 36.7296 164.568 36.7296H164.57ZM155.068 53.6895C154.623 53.4684 154.25 53.1735 153.946 52.8118C153.642 52.4478 153.416 52.0285 153.264 51.554C153.112 51.0794 153.038 50.6002 153.038 50.1142C153.038 49.6281 153.114 49.1558 153.264 48.6905C153.416 48.2251 153.644 47.8174 153.946 47.4626C154.248 47.1101 154.623 46.8222 155.068 46.5987C155.512 46.3775 156.026 46.2647 156.613 46.2647C157.201 46.2647 157.685 46.3752 158.129 46.5987C158.574 46.8222 158.952 47.1147 159.265 47.4764C159.578 47.8404 159.82 48.2551 159.993 48.7181C160.163 49.1835 160.251 49.658 160.251 50.1418C160.251 50.6256 160.166 51.1001 159.993 51.5655C159.82 52.0308 159.578 52.4432 159.265 52.8072C158.952 53.1712 158.572 53.4637 158.129 53.6849C157.685 53.9084 157.18 54.0189 156.613 54.0189C156.047 54.0189 155.512 53.9084 155.068 53.6849V53.6895Z" fill="white"/>
<path d="M191.775 42.6294H187.566C187.37 42.6294 187.2 42.7607 187.147 42.9473L184.599 52.1737H184.539L181.844 42.9427C181.791 42.7584 181.62 42.6294 181.427 42.6294H177.082C176.889 42.6294 176.716 42.7584 176.665 42.945L174.057 52.1737H173.967L171.45 42.9496C171.399 42.7607 171.226 42.6294 171.03 42.6294H166.609C166.31 42.6294 166.1 42.9243 166.199 43.2053L171.111 57.4261C171.171 57.6012 171.337 57.7187 171.521 57.7187H175.891C176.082 57.7187 176.25 57.5943 176.306 57.4123L179.121 48.3265H179.181L182.054 57.4146C182.111 57.5943 182.279 57.7187 182.468 57.7187H186.841C187.025 57.7187 187.191 57.6012 187.251 57.4261L192.19 43.2053C192.289 42.922 192.079 42.6294 191.78 42.6294H191.775Z" fill="white"/>
<path d="M216.789 36.7296H212.601C212.36 36.7296 212.165 36.9245 212.165 37.165V57.2833C212.165 57.5238 212.36 57.7187 212.601 57.7187H216.789C217.029 57.7187 217.224 57.5238 217.224 57.2833V37.165C217.224 36.9245 217.029 36.7296 216.789 36.7296Z" fill="white"/>
<path d="M225.089 36.7296H220.901C220.66 36.7296 220.465 36.9245 220.465 37.165V57.2833C220.465 57.5238 220.66 57.7187 220.901 57.7187H225.089C225.329 57.7187 225.524 57.5238 225.524 57.2833V37.165C225.524 36.9245 225.329 36.7296 225.089 36.7296Z" fill="white"/>
<path d="M208.542 42.1134H205.079C204.817 42.1134 204.584 42.2862 204.508 42.5396L204.102 43.908C203.672 43.5279 203.126 43.1731 202.462 42.8437C201.612 42.4198 200.571 42.2079 199.341 42.2079C198.251 42.2079 197.265 42.4198 196.385 42.8437C195.507 43.2676 194.759 43.8435 194.143 44.5715C193.526 45.2994 193.054 46.1426 192.72 47.1009C192.386 48.0616 192.22 49.066 192.22 50.1165C192.22 51.167 192.381 52.176 192.704 53.1459C193.026 54.1157 193.496 54.9681 194.114 55.7053C194.729 56.4425 195.482 57.0345 196.371 57.4768C197.26 57.9214 198.269 58.1426 199.401 58.1426C199.661 58.1426 199.919 58.1288 200.17 58.1011C201.096 58.0251 201.902 57.8155 202.589 57.4745C203.402 57.0691 204.047 56.6268 204.526 56.1499L204.902 57.3087C204.982 57.5529 205.21 57.7187 205.466 57.7187H208.537C208.777 57.7187 208.972 57.5252 208.972 57.2856V42.5488C208.972 42.3092 208.779 42.1134 208.539 42.1134H208.542ZM197.917 52.8095C197.613 52.4455 197.387 52.0263 197.235 51.5517C197.085 51.0771 197.009 50.598 197.009 50.1119C197.009 49.6258 197.085 49.1535 197.235 48.6882C197.387 48.2228 197.615 47.8151 197.917 47.4603C198.219 47.1078 198.594 46.8199 199.039 46.5964C199.483 46.3753 199.997 46.2624 200.585 46.2624C201.172 46.2624 201.656 46.373 202.1 46.5964C202.545 46.8199 202.923 47.1124 203.236 47.4741C203.549 47.8381 203.791 48.2528 203.964 48.7158C204.135 49.1812 204.222 49.6557 204.222 50.1395C204.222 50.6233 204.137 51.0979 203.964 51.5632C203.791 52.0286 203.549 52.4409 203.236 52.8049C202.923 53.1689 202.543 53.4615 202.1 53.6826C201.656 53.9061 201.151 54.0167 200.585 54.0167C200.018 54.0167 199.483 53.9061 199.039 53.6826C198.594 53.4615 198.221 53.1666 197.917 52.8049V52.8095Z" fill="white"/>
<path d="M147.719 42.2493L147.682 42.2424L147.74 42.2078C147.615 42.2078 147.493 42.2124 147.371 42.217C147.27 42.2124 147.168 42.2078 147.067 42.2078C146.413 42.2078 145.814 42.3322 145.27 42.5741C145.042 42.6524 144.823 42.7423 144.616 42.846C143.814 43.2468 143.183 43.6822 142.72 44.1522L142.416 43.0832C142.342 42.8275 142.109 42.6524 141.845 42.6524H138.562C138.322 42.6524 138.126 42.846 138.126 43.0855V57.2879C138.126 57.5275 138.32 57.7233 138.562 57.7233H142.662C142.902 57.7233 143.098 57.5298 143.098 57.2879V49.9874C143.098 49.6857 143.158 49.3332 143.28 48.93C143.402 48.5269 143.598 48.1537 143.869 47.8127C144.141 47.4695 144.505 47.1792 144.959 46.9373C145.413 46.6954 145.973 46.5757 146.641 46.5757C146.844 46.5757 147.051 46.5872 147.263 46.6056L147.463 46.6309C147.703 46.654 147.915 46.4789 147.938 46.2416L148.104 42.7354C148.129 42.4981 147.959 42.2815 147.719 42.2562V42.2493Z" fill="white"/>
<path d="M134.27 44.3272C133.604 43.62 132.805 43.0809 131.877 42.7054C130.948 42.3322 129.928 42.1456 128.817 42.1456C127.707 42.1456 126.594 42.3368 125.606 42.7216C124.615 43.1063 123.758 43.6453 123.03 44.3434C122.302 45.0391 121.726 45.8892 121.305 46.889C120.881 47.8888 120.669 49.0061 120.669 50.2363C120.669 51.4664 120.886 52.6413 121.321 53.6296C121.756 54.6202 122.351 55.4518 123.109 56.1291C123.867 56.8064 124.749 57.3202 125.76 57.6749C126.769 58.0274 127.841 58.2048 128.972 58.2048C130.506 58.2048 131.854 57.926 133.017 57.3708C133.726 57.0322 134.353 56.6037 134.892 56.0854C135.097 55.8896 135.099 55.5601 134.899 55.3574L132.752 53.2011C132.556 53.003 132.231 52.9961 132.038 53.1942C131.752 53.4891 131.418 53.7379 131.031 53.9452C130.485 54.2378 129.819 54.3852 129.032 54.3852C128.587 54.3852 128.158 54.3138 127.744 54.1733C127.329 54.0328 126.956 53.8346 126.622 53.5835C126.288 53.3301 126.016 53.033 125.804 52.6897C125.592 52.3464 125.465 51.9617 125.424 51.5378H136.362C136.383 51.3559 136.392 51.1646 136.392 50.9619V50.356C136.392 49.0637 136.205 47.9118 135.832 46.9028C135.457 45.8938 134.938 45.0345 134.272 44.3272H134.27ZM125.422 48.4486C125.442 48.0662 125.544 47.6953 125.726 47.3428C125.908 46.9903 126.15 46.6816 126.454 46.419C126.758 46.1564 127.11 45.9491 127.513 45.797C127.917 45.645 128.361 45.5689 128.847 45.5689C129.838 45.5689 130.58 45.8523 131.075 46.4167C131.57 46.9834 131.817 47.6584 131.817 48.4463H125.424L125.422 48.4486Z" fill="white"/>
<path d="M241.012 44.3272C240.346 43.62 239.547 43.0809 238.619 42.7054C237.69 42.3322 236.67 42.1456 235.559 42.1456C234.449 42.1456 233.336 42.3368 232.348 42.7216C231.357 43.1063 230.5 43.6453 229.772 44.3434C229.044 45.0391 228.469 45.8892 228.045 46.889C227.621 47.8888 227.409 49.0061 227.409 50.2363C227.409 51.4664 227.625 52.6413 228.061 53.6296C228.496 54.6202 229.091 55.4518 229.848 56.1291C230.606 56.8064 231.489 57.3202 232.5 57.6749C233.509 58.0274 234.58 58.2048 235.711 58.2048C237.246 58.2048 238.593 57.926 239.757 57.3708C240.466 57.0322 241.093 56.6037 241.632 56.0854C241.837 55.8896 241.839 55.5601 241.639 55.3574L239.492 53.2011C239.296 53.003 238.971 52.9961 238.778 53.1942C238.492 53.4891 238.158 53.7379 237.771 53.9452C237.225 54.2378 236.559 54.3852 235.771 54.3852C235.327 54.3852 234.898 54.3138 234.484 54.1733C234.069 54.0328 233.696 53.8346 233.362 53.5835C233.028 53.3301 232.756 53.033 232.544 52.6897C232.332 52.3464 232.205 51.9617 232.164 51.5378H243.102C243.122 51.3559 243.132 51.1646 243.132 50.9619V50.356C243.132 49.0637 242.945 47.9118 242.572 46.9028C242.199 45.8938 241.678 45.0345 241.012 44.3272ZM232.164 48.4486C232.184 48.0662 232.286 47.6953 232.468 47.3428C232.65 46.9903 232.892 46.6816 233.196 46.419C233.5 46.1564 233.852 45.9491 234.255 45.797C234.659 45.645 235.103 45.5689 235.589 45.5689C236.58 45.5689 237.322 45.8523 237.817 46.4167C238.312 46.9834 238.559 47.6584 238.559 48.4463H232.166L232.164 48.4486Z" fill="white"/>
<path d="M72.8714 32.0622C72.7655 32.023 72.6526 32 72.5374 32H63.2926C62.9171 32 62.613 32.3041 62.613 32.6796V42.3183L72.8714 32.0622Z" fill="white"/>
<path d="M62.8112 62.7591C62.9333 62.8812 63.1037 62.9572 63.2926 62.9572H72.2518C72.6273 62.9572 72.9313 62.6531 72.9313 62.2776V52.6389L62.8112 62.7591Z" fill="white"/>
<path d="M83.2518 42.3183V62.8697C83.2726 62.8789 83.2933 62.8881 83.314 62.895L93.5724 52.6366L83.2541 42.3183H83.2518Z" fill="white"/>
<path d="M72.9313 52.639V32.0876C72.9106 32.0784 72.8899 32.0692 72.8691 32.0599L62.613 42.3183V62.2777C62.613 62.4643 62.6891 62.6347 62.8112 62.7591L72.9313 52.639Z" fill="white"/>
<path d="M93.5701 52.6389V42.3206V32.6796C93.5701 32.3041 93.266 32 92.8905 32H83.9314C83.5559 32 83.2518 32.3041 83.2518 32.6773V42.3183L93.5701 52.6366V52.6389Z" fill="white"/>
<path d="M93.5703 52.6389L83.3119 62.8973C83.4179 62.9365 83.5307 62.9595 83.6459 62.9595H92.8907C93.2662 62.9595 93.5703 62.6554 93.5703 62.2799V52.6412V52.6389Z" fill="white"/>
<path d="M73.2103 32.2787C73.1296 32.1981 73.0329 32.1336 72.9315 32.0875V52.6389L82.9711 62.6785C83.0517 62.7591 83.1485 62.8236 83.2498 62.8697V42.3183L73.2103 32.2787Z" fill="white"/>
<path d="M94.8037 111.957V93.7572H103.254C105.334 93.7572 106.972 94.3292 108.012 95.3692C108.844 96.2012 109.26 97.2152 109.26 98.4632V98.5152C109.26 100.569 108.168 101.713 106.868 102.441C108.974 103.247 110.274 104.469 110.274 106.913V106.965C110.274 110.293 107.57 111.957 103.462 111.957H94.8037ZM105.282 99.1912V99.1392C105.282 97.9432 104.346 97.2672 102.656 97.2672H98.7037V101.115H102.396C104.164 101.115 105.282 100.543 105.282 99.1912ZM106.296 106.419C106.296 105.197 105.386 104.443 103.332 104.443H98.7037V108.447H103.462C105.23 108.447 106.296 107.823 106.296 106.471V106.419ZM115.907 111.957V93.7572H129.635V97.3192H119.885V101.011H128.465V104.573H119.885V108.395H129.765V111.957H115.907ZM142.139 112.217C139.383 112.217 136.601 111.255 134.417 109.305L136.783 106.471C138.421 107.823 140.137 108.681 142.217 108.681C143.855 108.681 144.843 108.031 144.843 106.965V106.913C144.843 105.899 144.219 105.379 141.177 104.599C137.511 103.663 135.145 102.649 135.145 99.0352V98.9832C135.145 95.6812 137.797 93.4972 141.515 93.4972C144.167 93.4972 146.429 94.3292 148.275 95.8112L146.195 98.8272C144.583 97.7092 142.997 97.0332 141.463 97.0332C139.929 97.0332 139.123 97.7352 139.123 98.6192V98.6712C139.123 99.8672 139.903 100.257 143.049 101.063C146.741 102.025 148.821 103.351 148.821 106.523V106.575C148.821 110.189 146.065 112.217 142.139 112.217ZM158.493 111.957V97.4492H152.955V93.7572H168.035V97.4492H162.497V111.957H158.493ZM170.235 105.795V101.999H178.243V105.795H170.235ZM192.912 112.269C187.296 112.269 183.266 108.083 183.266 102.909V102.857C183.266 97.6832 187.348 93.4452 192.964 93.4452C198.58 93.4452 202.61 97.6312 202.61 102.805V102.857C202.61 108.031 198.528 112.269 192.912 112.269ZM192.964 108.577C196.188 108.577 198.424 106.029 198.424 102.909V102.857C198.424 99.7372 196.136 97.1372 192.912 97.1372C189.688 97.1372 187.452 99.6852 187.452 102.805V102.857C187.452 105.977 189.74 108.577 192.964 108.577ZM208.502 111.957V93.7572H222.36V97.3972H212.506V101.271H221.19V104.911H212.506V111.957H208.502Z" fill="white"/>
<path d="M92.2301 142.957L100.03 124.627H103.722L111.522 142.957H107.336L105.672 138.875H97.9761L96.3121 142.957H92.2301ZM99.4061 135.339H104.242L101.824 129.437L99.4061 135.339ZM119.145 143.087L112.931 124.757H117.221L120.991 137.081L125.073 124.705H128.505L132.587 137.081L136.357 124.757H140.543L134.329 143.087H130.845L126.737 131.179L122.629 143.087H119.145ZM141.953 142.957L149.753 124.627H153.445L161.245 142.957H157.059L155.395 138.875H147.699L146.035 142.957H141.953ZM149.129 135.339H153.965L151.547 129.437L149.129 135.339ZM166.394 142.957V124.757H174.714C177.028 124.757 178.822 125.407 180.018 126.603C181.032 127.617 181.578 129.047 181.578 130.763V130.815C181.578 133.753 179.992 135.599 177.678 136.457L182.124 142.957H177.444L173.544 137.133H170.398V142.957H166.394ZM170.398 133.597H174.454C176.404 133.597 177.522 132.557 177.522 131.023V130.971C177.522 129.255 176.326 128.371 174.376 128.371H170.398V133.597ZM187.523 142.957V124.757H194.621C200.341 124.757 204.293 128.683 204.293 133.805V133.857C204.293 138.979 200.341 142.957 194.621 142.957H187.523ZM194.621 128.371H191.527V139.343H194.621C197.897 139.343 200.107 137.133 200.107 133.909V133.857C200.107 130.633 197.897 128.371 194.621 128.371ZM216.421 143.217C213.665 143.217 210.883 142.255 208.699 140.305L211.065 137.471C212.703 138.823 214.419 139.681 216.499 139.681C218.137 139.681 219.125 139.031 219.125 137.965V137.913C219.125 136.899 218.501 136.379 215.459 135.599C211.793 134.663 209.427 133.649 209.427 130.035V129.983C209.427 126.681 212.079 124.497 215.797 124.497C218.449 124.497 220.711 125.329 222.557 126.811L220.477 129.827C218.865 128.709 217.279 128.033 215.745 128.033C214.211 128.033 213.405 128.735 213.405 129.619V129.671C213.405 130.867 214.185 131.257 217.331 132.063C221.023 133.025 223.103 134.351 223.103 137.523V137.575C223.103 141.189 220.347 143.217 216.421 143.217Z" fill="white"/>
<path d="M83.3414 198.957V190.927L97.7514 179.927C101.326 177.122 102.756 175.307 102.756 172.997C102.756 170.522 101.051 169.037 98.4114 169.037C95.8264 169.037 93.7914 170.577 90.7664 174.042L83.5614 168.047C87.6864 162.712 91.8114 159.797 99.2364 159.797C107.651 159.797 113.426 164.802 113.426 172.062V172.172C113.426 178.332 110.236 181.522 104.516 185.647L97.9164 190.267H113.811V198.957H83.3414ZM138.618 199.727C127.673 199.727 120.853 190.707 120.853 179.817V179.707C120.853 168.817 127.783 159.687 138.728 159.687C149.673 159.687 156.493 168.707 156.493 179.597V179.707C156.493 190.597 149.618 199.727 138.618 199.727ZM138.728 190.267C143.018 190.267 145.768 185.922 145.768 179.817V179.707C145.768 173.547 142.908 169.092 138.618 169.092C134.383 169.092 131.578 173.437 131.578 179.597V179.707C131.578 185.867 134.438 190.267 138.728 190.267ZM162.801 198.957V190.927L177.211 179.927C180.786 177.122 182.216 175.307 182.216 172.997C182.216 170.522 180.511 169.037 177.871 169.037C175.286 169.037 173.251 170.577 170.226 174.042L163.021 168.047C167.146 162.712 171.271 159.797 178.696 159.797C187.111 159.797 192.886 164.802 192.886 172.062V172.172C192.886 178.332 189.696 181.522 183.976 185.647L177.376 190.267H193.271V198.957H162.801ZM216.813 199.727C211.368 199.727 207.848 198.077 205.043 195.327C202.183 192.467 200.313 188.122 200.313 180.917V180.807C200.313 168.817 206.143 159.687 218.188 159.687C223.578 159.687 227.318 161.172 231.003 163.922L225.998 171.402C223.633 169.642 221.433 168.487 218.353 168.487C212.798 168.487 211.368 173.657 211.093 176.737C213.568 174.812 216.098 173.767 219.398 173.767C226.163 173.767 232.103 178.057 232.103 185.757V185.867C232.103 194.447 225.228 199.727 216.813 199.727ZM216.373 191.422C219.728 191.422 221.763 189.277 221.763 186.472V186.362C221.763 183.557 219.618 181.412 216.263 181.412C212.908 181.412 210.928 183.502 210.928 186.307V186.417C210.928 189.222 213.018 191.422 216.373 191.422Z" fill="url(#paint1_linear_9_10313)"/>
<path d="M63 225.957H253" stroke="#00482F" stroke-linecap="round"/>
<path d="M43.6831 278.957V250.957H58.0431C61.5631 250.957 64.0431 251.837 65.6831 253.437C66.8031 254.597 67.4831 256.077 67.4831 257.997V258.077C67.4831 261.317 65.6431 263.237 63.1631 264.317C66.5631 265.437 68.7231 267.357 68.7231 271.157V271.237C68.7231 276.037 64.8031 278.957 58.1231 278.957H43.6831ZM59.8431 259.677V259.597C59.8431 258.037 58.6031 257.197 56.3231 257.197H51.2431V262.117H56.1231C58.4831 262.117 59.8431 261.317 59.8431 259.677ZM60.9631 270.077C60.9631 268.557 59.7631 267.557 57.1631 267.557H51.2431V272.717H57.2431C59.6431 272.717 60.9631 271.797 60.9631 270.157V270.077ZM82.5969 279.477C75.7969 279.477 70.9969 274.917 70.9969 268.237V268.157C70.9969 261.837 75.5169 256.837 81.9169 256.837C89.3569 256.837 92.7969 262.317 92.7969 268.677C92.7969 269.157 92.7969 269.717 92.7569 270.237H78.2769C78.8769 272.597 80.5969 273.797 82.9569 273.797C84.7969 273.797 86.1969 273.117 87.7569 271.597L91.9569 275.077C89.8769 277.717 86.8769 279.477 82.5969 279.477ZM78.1569 266.357H85.7169C85.4369 263.957 83.9969 262.437 81.9169 262.437C79.9169 262.437 78.5569 263.957 78.1569 266.357ZM104.695 279.437C101.055 279.437 97.4547 278.357 94.4947 276.197L97.3347 271.637C99.8147 273.277 102.495 274.117 104.735 274.117C106.055 274.117 106.695 273.717 106.695 272.957V272.877C106.695 271.997 105.455 271.637 103.175 270.997C98.8947 269.877 95.4947 268.437 95.4947 264.117V264.037C95.4947 259.437 99.1747 256.877 104.175 256.877C107.335 256.877 110.615 257.797 113.095 259.397L110.495 264.197C108.255 262.917 105.815 262.157 104.095 262.157C102.935 262.157 102.335 262.597 102.335 263.237V263.317C102.335 264.157 103.615 264.557 105.855 265.237C110.135 266.437 113.535 267.917 113.535 272.117V272.197C113.535 276.957 109.975 279.437 104.695 279.437ZM124.851 279.397C120.291 279.397 117.611 277.397 117.611 272.237V263.397H115.051V257.317H117.611V251.837H125.171V257.317H130.211V263.397H125.171V270.757C125.171 272.277 125.851 272.917 127.251 272.917C128.251 272.917 129.211 272.637 130.131 272.197V278.117C128.771 278.877 126.971 279.397 124.851 279.397ZM159.131 279.517C150.491 279.517 144.091 273.077 144.091 265.037V264.957C144.091 256.917 150.571 250.397 159.211 250.397C167.851 250.397 174.251 256.837 174.251 264.877V264.957C174.251 272.997 167.771 279.517 159.131 279.517ZM159.211 272.517C163.451 272.517 166.291 269.077 166.291 265.037V264.957C166.291 260.877 163.411 257.397 159.131 257.397C154.851 257.397 152.011 260.837 152.011 264.877V264.957C152.011 268.997 154.931 272.517 159.211 272.517ZM177.813 278.957V257.317H185.413V260.357C186.813 258.557 188.813 256.837 191.893 256.837C196.493 256.837 199.253 259.877 199.253 264.797V278.957H191.693V267.237C191.693 264.837 190.453 263.557 188.613 263.557C186.773 263.557 185.413 264.837 185.413 267.237V278.957H177.813ZM203.365 278.957V249.757H210.925V278.957H203.365ZM215.236 255.357V249.757H223.116V255.357H215.236ZM215.396 278.957V257.317H222.956V278.957H215.396ZM227.228 278.957V257.317H234.828V260.357C236.228 258.557 238.228 256.837 241.308 256.837C245.908 256.837 248.668 259.877 248.668 264.797V278.957H241.108V267.237C241.108 264.837 239.868 263.557 238.028 263.557C236.188 263.557 234.828 264.837 234.828 267.237V278.957H227.228ZM263.339 279.477C256.539 279.477 251.739 274.917 251.739 268.237V268.157C251.739 261.837 256.259 256.837 262.659 256.837C270.099 256.837 273.539 262.317 273.539 268.677C273.539 269.157 273.539 269.717 273.499 270.237H259.019C259.619 272.597 261.339 273.797 263.699 273.797C265.539 273.797 266.939 273.117 268.499 271.597L272.699 275.077C270.619 277.717 267.619 279.477 263.339 279.477ZM258.899 266.357H266.459C266.179 263.957 264.739 262.437 262.659 262.437C260.659 262.437 259.299 263.957 258.899 266.357ZM92.5698 324.957V296.957H106.93C110.45 296.957 112.93 297.837 114.57 299.437C115.69 300.597 116.37 302.077 116.37 303.997V304.077C116.37 307.317 114.53 309.237 112.05 310.317C115.45 311.437 117.61 313.357 117.61 317.157V317.237C117.61 322.037 113.69 324.957 107.01 324.957H92.5698ZM108.73 305.677V305.597C108.73 304.037 107.49 303.197 105.21 303.197H100.13V308.117H105.01C107.37 308.117 108.73 307.317 108.73 305.677ZM109.85 316.077C109.85 314.557 108.65 313.557 106.05 313.557H100.13V318.717H106.13C108.53 318.717 109.85 317.797 109.85 316.157V316.077ZM120.724 324.957V303.317H128.324V307.677C129.564 304.717 131.564 302.797 135.164 302.957V310.957H134.524C130.564 310.957 128.324 313.237 128.324 318.197V324.957H120.724ZM148.482 325.477C141.602 325.477 136.602 320.397 136.602 314.237V314.157C136.602 307.997 141.642 302.837 148.562 302.837C155.482 302.837 160.482 307.917 160.482 314.077V314.157C160.482 320.317 155.442 325.477 148.482 325.477ZM148.562 319.037C151.322 319.037 153.122 316.837 153.122 314.237V314.157C153.122 311.477 151.162 309.237 148.482 309.237C145.722 309.237 143.962 311.437 143.962 314.077V314.157C143.962 316.797 145.882 319.037 148.562 319.037ZM163.692 324.957V295.757H171.292V310.557L177.172 303.317H185.772L178.252 311.957L185.972 324.957H177.572L173.252 317.557L171.292 319.837V324.957H163.692ZM197.343 325.477C190.543 325.477 185.743 320.917 185.743 314.237V314.157C185.743 307.837 190.263 302.837 196.663 302.837C204.103 302.837 207.543 308.317 207.543 314.677C207.543 315.157 207.543 315.717 207.503 316.237H193.023C193.623 318.597 195.343 319.797 197.703 319.797C199.543 319.797 200.943 319.117 202.503 317.597L206.703 321.077C204.623 323.717 201.623 325.477 197.343 325.477ZM192.903 312.357H200.463C200.183 309.957 198.743 308.437 196.663 308.437C194.663 308.437 193.303 309.957 192.903 312.357ZM210.841 324.957V303.317H218.441V307.677C219.681 304.717 221.681 302.797 225.281 302.957V310.957H224.641C220.681 310.957 218.441 313.237 218.441 318.197V324.957H210.841Z" fill="url(#paint2_linear_9_10313)"/>
<path d="M27.2089 369.957L36.1409 349.512H39.4469L48.3789 369.957H44.6089L42.5499 365.056H32.9509L30.8629 369.957H27.2089ZM34.2559 361.895H41.2449L37.7359 353.775L34.2559 361.895ZM57.0397 370.276C53.4437 370.276 49.9347 367.405 49.9347 362.33V362.272C49.9347 357.197 53.3857 354.326 57.0397 354.326C59.5627 354.326 61.1577 355.573 62.2597 357.023V348.787H65.7687V369.957H62.2597V367.405C61.1287 369 59.5337 370.276 57.0397 370.276ZM57.8807 367.231C60.2297 367.231 62.3177 365.259 62.3177 362.33V362.272C62.3177 359.314 60.2297 357.371 57.8807 357.371C55.4737 357.371 53.4727 359.256 53.4727 362.272V362.33C53.4727 365.288 55.5027 367.231 57.8807 367.231ZM75.0167 370.073L68.7237 354.645H72.4937L76.6117 365.897L80.7587 354.645H84.4417L78.1777 370.073H75.0167ZM91.0925 370.276C88.2215 370.276 85.6405 368.623 85.6405 365.549V365.491C85.6405 362.185 88.2505 360.561 91.9915 360.561C93.7025 360.561 94.9205 360.822 96.1095 361.199V360.822C96.1095 358.647 94.7755 357.487 92.3105 357.487C90.5995 357.487 89.3235 357.864 87.9315 358.444L86.9745 355.689C88.6855 354.935 90.3385 354.442 92.7745 354.442C95.0655 354.442 96.7765 355.051 97.8495 356.153C98.9805 357.255 99.5025 358.879 99.5025 360.88V369.957H96.0805V368.043C95.0365 369.29 93.4415 370.276 91.0925 370.276ZM92.0785 367.724C94.3985 367.724 96.1675 366.39 96.1675 364.447V363.403C95.2685 363.055 94.0795 362.794 92.6875 362.794C90.4255 362.794 89.0915 363.751 89.0915 365.346V365.404C89.0915 366.883 90.3965 367.724 92.0785 367.724ZM103.676 369.957V354.645H107.214V356.994C108.2 355.573 109.621 354.326 111.999 354.326C115.45 354.326 117.451 356.646 117.451 360.184V369.957H113.942V361.257C113.942 358.879 112.753 357.516 110.665 357.516C108.635 357.516 107.214 358.937 107.214 361.315V369.957H103.676ZM128.764 370.305C124.211 370.305 120.847 366.738 120.847 362.388V362.33C120.847 357.98 124.211 354.326 128.822 354.326C131.693 354.326 133.491 355.399 134.941 356.965L132.737 359.314C131.664 358.212 130.533 357.4 128.793 357.4C126.241 357.4 124.356 359.604 124.356 362.272V362.33C124.356 365.056 126.241 367.231 128.938 367.231C130.591 367.231 131.78 366.477 132.911 365.346L135.028 367.434C133.52 369.116 131.751 370.305 128.764 370.305ZM144.849 370.305C140.412 370.305 136.99 367.086 136.99 362.359V362.301C136.99 357.922 140.093 354.326 144.472 354.326C149.344 354.326 151.809 358.154 151.809 362.562C151.809 362.881 151.78 363.2 151.751 363.548H140.499C140.876 366.042 142.645 367.434 144.907 367.434C146.618 367.434 147.836 366.796 149.054 365.607L151.113 367.434C149.663 369.174 147.662 370.305 144.849 370.305ZM140.47 361.228H148.329C148.097 358.966 146.763 357.197 144.443 357.197C142.297 357.197 140.789 358.85 140.47 361.228ZM161.655 370.276C158.059 370.276 154.55 367.405 154.55 362.33V362.272C154.55 357.197 158.001 354.326 161.655 354.326C164.178 354.326 165.773 355.573 166.875 357.023V348.787H170.384V369.957H166.875V367.405C165.744 369 164.149 370.276 161.655 370.276ZM162.496 367.231C164.845 367.231 166.933 365.259 166.933 362.33V362.272C166.933 359.314 164.845 357.371 162.496 357.371C160.089 357.371 158.088 359.256 158.088 362.272V362.33C158.088 365.288 160.118 367.231 162.496 367.231ZM188.848 369.957V352.963H182.381V349.657H198.882V352.963H192.415V369.957H188.848ZM200.107 369.957V354.645H203.645V358.096C204.602 355.805 206.371 354.239 209.068 354.355V358.067H208.865C205.791 358.067 203.645 360.068 203.645 364.128V369.957H200.107ZM215.787 370.276C212.916 370.276 210.335 368.623 210.335 365.549V365.491C210.335 362.185 212.945 360.561 216.686 360.561C218.397 360.561 219.615 360.822 220.804 361.199V360.822C220.804 358.647 219.47 357.487 217.005 357.487C215.294 357.487 214.018 357.864 212.626 358.444L211.669 355.689C213.38 354.935 215.033 354.442 217.469 354.442C219.76 354.442 221.471 355.051 222.544 356.153C223.675 357.255 224.197 358.879 224.197 360.88V369.957H220.775V368.043C219.731 369.29 218.136 370.276 215.787 370.276ZM216.773 367.724C219.093 367.724 220.862 366.39 220.862 364.447V363.403C219.963 363.055 218.774 362.794 217.382 362.794C215.12 362.794 213.786 363.751 213.786 365.346V365.404C213.786 366.883 215.091 367.724 216.773 367.724ZM234.721 370.276C231.125 370.276 227.616 367.405 227.616 362.33V362.272C227.616 357.197 231.067 354.326 234.721 354.326C237.244 354.326 238.839 355.573 239.941 357.023V348.787H243.45V369.957H239.941V367.405C238.81 369 237.215 370.276 234.721 370.276ZM235.562 367.231C237.911 367.231 239.999 365.259 239.999 362.33V362.272C239.999 359.314 237.911 357.371 235.562 357.371C233.155 357.371 231.154 359.256 231.154 362.272V362.33C231.154 365.288 233.184 367.231 235.562 367.231ZM254.873 370.305C250.436 370.305 247.014 367.086 247.014 362.359V362.301C247.014 357.922 250.117 354.326 254.496 354.326C259.368 354.326 261.833 358.154 261.833 362.562C261.833 362.881 261.804 363.2 261.775 363.548H250.523C250.9 366.042 252.669 367.434 254.931 367.434C256.642 367.434 257.86 366.796 259.078 365.607L261.137 367.434C259.687 369.174 257.686 370.305 254.873 370.305ZM250.494 361.228H258.353C258.121 358.966 256.787 357.197 254.467 357.197C252.321 357.197 250.813 358.85 250.494 361.228ZM265.328 369.957V354.645H268.866V358.096C269.823 355.805 271.592 354.239 274.289 354.355V358.067H274.086C271.012 358.067 268.866 360.068 268.866 364.128V369.957H265.328ZM282.586 370.247C280.411 370.247 278.004 369.493 276.09 367.956L277.656 365.578C279.338 366.825 281.107 367.463 282.673 367.463C284.181 367.463 285.051 366.825 285.051 365.81V365.752C285.051 364.563 283.427 364.157 281.629 363.606C279.367 362.968 276.844 362.04 276.844 359.14V359.082C276.844 356.153 279.251 354.384 282.296 354.384C284.21 354.384 286.298 355.051 287.922 356.124L286.53 358.618C285.051 357.719 283.485 357.168 282.209 357.168C280.846 357.168 280.063 357.835 280.063 358.676V358.734C280.063 359.865 281.716 360.329 283.514 360.909C285.747 361.605 288.27 362.62 288.27 365.375V365.433C288.27 368.652 285.776 370.247 282.586 370.247Z" fill="white"/>
<path d="M0 391.957V478.461C0 483.71 4.9684 487.536 10.0427 486.196L156.305 447.57C157.646 447.215 159.057 447.216 160.399 447.572L305.949 486.182C311.025 487.529 316 483.701 316 478.45V391.957H0Z" fill="url(#paint3_linear_9_10313)"/>
<path d="M0 405.184V478.461C0 483.71 4.9684 487.536 10.0427 486.196L156.305 447.57C157.646 447.215 159.057 447.216 160.399 447.572L164.47 448.652L164.477 448.644L0 405.184Z" fill="#00682C"/>
<path d="M0 405.187L138.223 452.347L156.192 447.572C157.533 447.218 159.057 447.216 160.399 447.572L164.47 448.652L164.477 448.644L0 405.187Z" fill="#00482F"/>
<defs>
<linearGradient id="paint0_linear_9_10313" x1="35.1893" y1="30.6285" x2="312.715" y2="171.406" gradientUnits="userSpaceOnUse">
<stop stop-color="#00682C"/>
<stop offset="1" stop-color="#2A9859"/>
</linearGradient>
<linearGradient id="paint1_linear_9_10313" x1="158" y1="169.258" x2="158" y2="210.258" gradientUnits="userSpaceOnUse">
<stop stop-color="#DDFA88"/>
<stop offset="0.64" stop-color="#C5E46C"/>
</linearGradient>
<linearGradient id="paint2_linear_9_10313" x1="158" y1="272.576" x2="158" y2="334.412" gradientUnits="userSpaceOnUse">
<stop stop-color="#DDFA88"/>
<stop offset="0.64" stop-color="#C5E46C"/>
</linearGradient>
<linearGradient id="paint3_linear_9_10313" x1="-114.111" y1="439.212" x2="160.294" y2="312.989" gradientUnits="userSpaceOnUse">
<stop stop-color="#00682C"/>
<stop offset="1" stop-color="#2A9859"/>
</linearGradient>
</defs>
</svg>
